<?xml version="1.0" encoding="UTF-8"?>
<svg version="1.1" xmlns="http://www.w3.org/2000/svg" width="50" height="50">
<path d="M0 0 C4.9961892 2.83184813 7.89529949 7.06089848 9.6875 12.4375 C10.24551903 18.67228951 9.79326137 22.90114277 6.6875 28.4375 C7.1825 29.9225 7.1825 29.9225 7.6875 31.4375 C6.82125 31.705625 5.955 31.97375 5.0625 32.25 C1.69867979 33.31084082 1.69867979 33.31084082 -1.0625 35.0625 C-6.19868164 37.23549992 -11.25231362 37.4121484 -16.59375 35.7109375 C-20.96532555 33.70458007 -23.49990243 31.39597066 -26.3125 27.4375 C-27.3025 26.7775 -28.2925 26.1175 -29.3125 25.4375 C-28.84681141 10.1629141 -28.84681141 10.1629141 -24.3125 4.4375 C-17.44023087 -1.80859427 -8.72952041 -3.88347486 0 0 Z " fill="#DDDFAC" transform="translate(34.3125,7.5625)"/>
<path d="M0 0 C0.89460938 -0.00128906 1.78921875 -0.00257812 2.7109375 -0.00390625 C3.65195312 -0.00003906 4.59296875 0.00382813 5.5625 0.0078125 C6.97402344 0.00201172 6.97402344 0.00201172 8.4140625 -0.00390625 C9.75597656 -0.00197266 9.75597656 -0.00197266 11.125 0 C11.95128906 0.00112793 12.77757813 0.00225586 13.62890625 0.00341797 C15.5625 0.1328125 15.5625 0.1328125 16.5625 1.1328125 C16.64881874 2.47548663 16.66956473 3.82255572 16.66015625 5.16796875 C16.65765869 5.89636963 16.65516113 6.62477051 16.65258789 7.37524414 C16.64348389 8.3058667 16.63437988 9.23648926 16.625 10.1953125 C16.604375 13.1446875 16.58375 16.0940625 16.5625 19.1328125 C9.3025 19.1328125 2.0425 19.1328125 -5.4375 19.1328125 C-5.458125 16.1834375 -5.47875 13.2340625 -5.5 10.1953125 C-5.509104 9.26468994 -5.51820801 8.33406738 -5.52758789 7.37524414 C-5.53008545 6.64684326 -5.53258301 5.91844238 -5.53515625 5.16796875 C-5.54039307 4.419104 -5.54562988 3.67023926 -5.55102539 2.89868164 C-5.32041893 -0.68836459 -3.0498859 0.00416326 0 0 Z " fill="#EDE9E0" transform="translate(19.4375,14.8671875)"/>
<path d="M0 0 C1.32 0.33 2.64 0.66 4 1 C4 2.32 4 3.64 4 5 C2.68 5.33 1.36 5.66 0 6 C0 4.02 0 2.04 0 0 Z " fill="#FCFAF0" transform="translate(14,26)"/>
<path d="M0 0 C-0.33 1.32 -0.66 2.64 -1 4 C-2.9375 3.6875 -2.9375 3.6875 -5 3 C-5.33 2.01 -5.66 1.02 -6 0 C-3.50907189 -1.24546405 -2.58919267 -0.7767578 0 0 Z " fill="#EFBB19" transform="translate(44,6)"/>
<path d="M0 0 C0.99 0 1.98 0 3 0 C3 0.99 3 1.98 3 3 C2.01 3 1.02 3 0 3 C0 2.01 0 1.02 0 0 Z " fill="#89AC45" transform="translate(11,42)"/>
<path d="M0 0 C0.99 0 1.98 0 3 0 C3 0.66 3 1.32 3 2 C2.01 2 1.02 2 0 2 C0 1.34 0 0.68 0 0 Z " fill="#87AD44" transform="translate(42,11)"/>
</svg>
